<?xml version="1.0" standalone="no"?>
<!DOCTYPE svg PUBLIC "-//W3C//DTD SVG 20010904//EN"
 "http://www.w3.org/TR/2001/REC-SVG-20010904/DTD/svg10.dtd">
<svg version="1.0" xmlns="http://www.w3.org/2000/svg"
 width="260.000000pt" height="260.000000pt" viewBox="0 0 260.000000 260.000000"
 preserveAspectRatio="xMidYMid meet">
<metadata>
Created by potrace 1.11, written by Peter Selinger 2001-2013
</metadata>
<g transform="translate(0.000000,260.000000) scale(0.100000,-0.100000)"
fill="#000000" stroke="none">
<path d="M78 2579 c-23 -12 -46 -35 -58 -59 -20 -39 -20 -57 -20 -1221 0
-1307 -4 -1223 64 -1272 l31 -22 1193 -3 c1180 -2 1193 -2 1232 18 26 13 47
34 60 60 20 39 20 56 20 1222 0 1133 -1 1185 -19 1218 -10 19 -36 45 -57 57
l-39 23 -1185 -1 c-1160 0 -1186 0 -1222 -20z m1350 -72 l31 -32 -404 -379
c-223 -209 -405 -382 -405 -384 0 -2 66 -76 148 -165 81 -88 185 -202 232
-253 l85 -94 3 240 2 240 49 0 49 0 278 -286 c154 -157 280 -291 282 -298 1
-6 -13 -26 -31 -44 l-34 -33 -43 48 c-24 26 -135 142 -247 257 l-203 209 0
-224 1 -224 224 -242 c124 -133 225 -246 225 -251 0 -11 -54 -62 -66 -62 -6 0
-61 55 -122 123 -61 67 -145 158 -186 202 l-75 80 -1 -442 0 -443 -50 0 -50 0
0 498 0 498 -82 90 c-46 50 -185 201 -310 336 l-226 245 266 249 c287 268 364
340 515 482 53 51 101 92 105 92 4 0 22 -15 40 -33z"/>
</g>
</svg>
